<svg xmlns="http://www.w3.org/2000/svg" xmlns:xlink="http://www.w3.org/1999/xlink" viewBox="0 0 204.13 283.16"><defs><style>.cls-1{fill:#d7b969;}.cls-2,.cls-6{fill:#af1e23;stroke:#441712;stroke-width:4px;}.cls-2{stroke-linecap:round;stroke-linejoin:round;}.cls-3{fill:#441712;}.cls-4{clip-path:url(#clip-path);}.cls-5{fill:#d3af5e;}.cls-6{stroke-miterlimit:10;}.cls-7{fill:#eacf94;}</style><clipPath id="clip-path"><path class="cls-1" d="M122.55,137.18a62.85,62.85,0,0,0-55.62-92L51.73,18.36,29.11,25.3,31.57,56A62.86,62.86,0,0,0,37.15,163.4c-17.63,18.67-25.31,43.93-18,67.73,11.5,37.49,55.82,57.14,99,43.89s68.82-54.38,57.31-91.86C168.15,159.36,147.62,142.75,122.55,137.18Z"/></clipPath></defs><title>资源 9</title><g id="图层_2" data-name="图层 2"><g id="图层_1-2" data-name="图层 1"><rect class="cls-2" x="31.44" y="3.88" width="18.37" height="37.22" transform="translate(-4.81 12.91) rotate(-17.06)"/><path class="cls-1" d="M90.9,281.16c-35,0-64.59-19.87-73.66-49.44-7-23-.79-48.13,16.73-67.81A64.87,64.87,0,0,1,29.48,55L27.11,25.46a2,2,0,0,1,1.41-2.07l22.63-6.95a1.93,1.93,0,0,1,.58-.08,2,2,0,0,1,1.74,1L68.1,43.18a64.86,64.86,0,0,1,57.37,92.64c25.55,6.47,44.85,23.79,51.9,46.75,5.73,18.69,2.76,38.82-8.38,56.67s-28.93,31.15-50.27,37.7a94.74,94.74,0,0,1-27.82,4.22Z"/><path class="cls-3" d="M51.73,18.36l15.2,26.81a62.85,62.85,0,0,1,55.62,92c25.07,5.57,45.6,22.18,52.9,46C187,220.64,161.3,261.77,118.14,275a92.67,92.67,0,0,1-27.24,4.14c-33.21,0-62.68-18.47-71.75-48-7.31-23.8.37-49.06,18-67.73A62.86,62.86,0,0,1,31.57,56L29.11,25.3l22.62-6.94m0-4a4,4,0,0,0-1.17.17l-22.63,7a4,4,0,0,0-2.81,4.14L27.4,54.07A67.54,67.54,0,0,0,4,85.41a66.85,66.85,0,0,0,26.94,79c-16.79,19.93-22.63,45-15.59,67.93C24.66,262.72,55,283.16,90.9,283.16a96.75,96.75,0,0,0,28.41-4.31c45.2-13.88,72.1-57.33,60-96.87-7-22.93-25.93-40.4-51-47.48a66.87,66.87,0,0,0-22-80.48,67.45,67.45,0,0,0-37-12.81L55.21,16.38a4,4,0,0,0-3.48-2Z"/><path class="cls-1" d="M122.55,137.18a62.85,62.85,0,0,0-55.62-92L51.73,18.36,29.11,25.3,31.57,56A62.86,62.86,0,0,0,37.15,163.4c-17.63,18.67-25.31,43.93-18,67.73,11.5,37.49,55.82,57.14,99,43.89s68.82-54.38,57.31-91.86C168.15,159.36,147.62,142.75,122.55,137.18Z"/><g class="cls-4"><path class="cls-5" d="M66.93,45.17c10.49-7.1,102.86,69.5-19.5,112.36,0,0,32.95,10,68.08-14.14s39-28.46,39-28.46,6.78-28.81-12.94-58S69.24,34.14,66.93,45.17Z"/><path class="cls-5" d="M110.67,153.77s95,68.24-38.42,123.38c0,0,33.39,17.86,73.08-10.47s53.95-60.43,34.91-89.57S147,131.32,133.88,137.75A106.69,106.69,0,0,0,110.67,153.77Z"/></g><path class="cls-6" d="M201.88,142.1c1.67-9.75-5.39-19.08-15.75-20.85s-54.61,8.84-54.61,8.84,38.22,24.69,48.58,26.46S200.22,151.85,201.88,142.1Zm-52.8-9s25.12-4.58,31.07-3.57,10.11,5.7,9.3,10.46-6.29,7.8-12.24,6.78S149.08,133.09,149.08,133.09Z"/><path class="cls-6" d="M180.88,85.87c-6.87-7.11-18.57-7-26.13.35s-25.2,49.24-25.2,49.24,42.52-16.18,50.08-23.48S187.76,93,180.88,85.87Zm-38.52,37.22s11.18-23,15.52-27.15,10.58-4.78,13.93-1.31,2.56,9.69-1.78,13.89S142.36,123.09,142.36,123.09Z"/><path class="cls-2" d="M83.44,163.36c-15.93,4.89-31.3,8.47-43.28,10.07a75.71,75.71,0,0,1-15.18.8c-8.48-.65-11.35-4.32-12.26-7.28-1.17-3.82,1.31-8,5.55-9.27a8.1,8.1,0,0,1,8.27,1.95c5.19.75,24-1.31,52.66-10.1s45.38-17.65,49.26-21.18a8.09,8.09,0,0,1,5.75-6.25c4.24-1.3,8.62.74,9.79,4.56.91,3,.6,7.6-6.06,12.9a75.8,75.8,0,0,1-13,7.85C114.11,152.8,99.38,158.47,83.44,163.36Z"/><ellipse class="cls-7" cx="38.62" cy="99.51" rx="8.61" ry="12.75" transform="translate(-27.5 15.71) rotate(-17.06)"/><ellipse class="cls-7" cx="71.12" cy="205.37" rx="11.71" ry="16.72" transform="matrix(0.96, -0.29, 0.29, 0.96, -57.13, 29.91)"/></g></g></svg>